<svg width="60" height="61" fill="none" xmlns="http://www.w3.org/2000/svg"><g clip-path="url(#clip0)" fill-rule="evenodd" clip-rule="evenodd" fill="#666D89"><path d="M30.387.04l.194.003.386.01.385.015.192.009.382.022.191.013.192.014.19.015.19.016.189.018.19.018.376.04.189.023.188.023.188.025.187.025.186.027.372.057.186.03.186.032.184.032.185.034.184.034.184.036.183.036.183.04.182.038.364.081.181.043.181.044.18.044.18.046.18.047.179.048.179.048.178.05.178.051.354.106.176.054.352.112.174.058.174.058.348.12.346.124.344.128.341.132.34.136.338.14.168.073.166.072.168.074.166.075.166.075.165.077.165.077.164.079.163.079.164.08.162.082.163.082.16.083.162.085.16.085.319.173.159.089.157.088.158.09.157.091.155.092.156.092.155.094.154.094.154.095.153.096.152.098.152.098.152.098.15.1.15.1.15.102.149.103.147.103.148.105.146.104.146.106.146.107.289.215.143.11.142.11.143.111.141.112.28.226.14.114.138.115.275.232.273.236.135.12.134.12.267.241.263.245.13.124.13.125.13.126.128.126.128.127.126.127.126.128.125.13.125.13.124.13.245.263.242.266.12.135.12.135.235.272.232.275.116.138.114.14.225.28.112.142.111.142.11.142.11.144.215.289.107.145.106.146.105.147.104.147.103.148.103.15.102.148.1.15.1.15.099.152.097.152.098.152.096.153.095.155.095.153.093.156.093.155.091.156.092.156.09.158.088.158.088.158.173.32.086.16.084.161.083.16.083.163.081.162.08.164.08.164.078.163.077.165.078.166.075.166.074.165.074.168.073.167.072.168.14.337.136.34.133.342.128.343.124.346.12.348.058.174.058.175.112.352.053.176.106.354.051.178.05.177.049.18.047.178.047.18.046.18.045.18.044.181.042.181.082.364.038.183.039.183.037.183.035.184.035.184.033.184.033.185.031.185.03.186.058.372.026.186.026.188.024.188.023.188.023.188.04.377.019.19.017.188.016.19.016.19.014.192.012.191.022.383.01.192.014.384.01.387.003.193.002.387-.002.388-.003.193-.01.387-.014.384-.01.192-.022.383-.012.19-.014.192-.016.19-.016.19-.017.19-.018.188-.041.378-.023.188-.023.188-.024.188-.026.187-.026.186-.057.373-.03.186-.032.185-.033.185-.033.184-.035.184-.035.184-.037.183-.039.183-.038.182-.082.364-.042.181-.044.181-.045.18-.046.18-.047.18-.047.18-.05.178-.049.178-.05.178-.106.354-.054.176-.112.352-.058.175-.058.174-.12.348-.124.345-.128.344-.133.342-.136.34-.14.337-.072.168-.073.167-.074.167-.074.166-.075.166-.078.166-.077.164-.078.164-.08.164-.08.164-.081.161-.083.163-.083.16-.084.162-.086.16-.173.32-.088.158-.089.158-.09.157-.09.157-.092.155-.093.156-.093.156-.095.153-.094.155-.097.152-.098.153-.097.151-.099.152-.1.15-.1.15-.102.15-.103.149-.102.147-.105.148-.105.146-.106.147-.106.145-.216.289-.11.143-.11.143-.11.142-.112.141-.226.281-.114.14-.116.138-.232.274-.236.273-.119.135-.12.134-.242.267-.245.263-.124.13-.125.13-.125.13-.252.256-.257.252-.129.125-.13.125-.13.124-.264.245-.266.242-.134.12-.136.12-.272.235-.275.232-.138.116-.14.114-.28.226-.141.112-.143.11-.142.11-.143.11-.29.216-.145.107-.146.105-.146.105-.148.105-.147.103-.15.102-.148.102-.15.1-.151.1-.152.099-.151.098-.153.097-.153.097-.154.094-.154.095-.155.094-.156.092-.155.092-.157.091-.158.09-.157.088-.159.089-.32.172-.159.086-.162.084-.16.084-.163.082-.162.081-.163.08-.164.08-.164.078-.165.078-.165.077-.166.075-.166.075-.168.074-.166.072-.168.072-.338.14-.34.137-.341.132-.344.128-.346.124-.348.12-.174.058-.174.058-.352.112-.176.054-.354.106-.178.05-.178.05-.179.05-.179.047-.18.047-.18.045-.18.045-.181.044-.181.043-.364.08-.182.04-.183.038-.183.037-.184.035-.184.035-.184.034-.185.032-.186.032-.186.03-.372.057-.186.027-.187.025-.188.024-.188.024-.189.022-.377.04-.189.02-.19.016-.19.017-.19.015-.19.014-.192.012-.382.023-.192.009-.385.014-.386.01-.194.003-.387.002-.387-.002-.194-.003-.386-.01-.385-.014-.192-.01-.382-.022-.191-.012-.191-.014-.19-.015-.19-.017-.19-.017-.19-.018-.376-.04-.189-.023-.188-.024-.188-.024-.187-.026-.186-.026-.372-.057-.186-.03-.185-.032-.186-.032-.184-.034-.184-.035-.184-.035-.183-.037-.183-.038-.182-.04-.364-.08-.18-.043-.182-.044-.18-.045-.18-.045-.18-.047-.179-.048-.179-.049-.178-.05-.178-.05-.354-.106-.176-.054-.352-.112-.174-.058-.174-.058-.348-.12-.346-.124-.344-.128-.341-.132-.34-.137-.338-.14-.167-.072-.167-.072-.168-.075-.166-.074-.166-.075-.165-.077-.165-.078-.164-.078-.163-.08-.164-.08-.162-.08-.163-.083-.16-.084-.162-.084-.16-.085-.319-.173-.159-.089-.157-.088-.158-.09-.156-.091-.156-.092-.156-.092-.155-.094-.154-.095-.154-.094-.153-.097-.152-.097-.152-.098-.152-.099-.15-.1-.15-.1-.149-.102-.15-.102-.147-.103-.147-.105-.147-.105-.146-.105-.146-.107-.289-.216-.143-.11-.142-.11-.143-.11-.141-.112-.28-.226-.14-.114-.138-.116-.275-.232-.272-.236-.136-.118-.134-.12-.266-.242-.264-.246-.13-.124-.13-.125-.13-.125-.127-.126-.128-.126-.127-.128-.126-.128-.125-.13-.125-.13-.124-.13-.245-.263-.242-.267-.12-.134-.12-.135-.235-.273-.232-.274-.116-.139-.114-.139-.225-.28-.112-.142-.111-.142-.11-.143-.11-.143-.215-.289-.107-.145-.106-.147-.105-.146-.104-.148-.103-.147-.103-.15-.102-.148-.1-.15-.1-.151-.099-.152-.097-.151-.098-.153-.096-.152-.095-.155-.095-.153-.093-.156-.093-.156-.091-.155-.092-.157-.09-.157-.088-.158-.088-.159-.173-.319-.086-.16-.084-.161-.083-.161-.083-.163-.081-.161-.08-.164-.08-.164-.078-.164-.077-.164-.078-.166-.075-.166-.074-.166-.074-.167-.073-.167-.072-.168-.14-.338-.136-.34-.133-.341-.128-.344-.124-.346-.12-.347-.058-.174-.058-.175-.112-.352-.053-.176-.106-.354-.051-.178-.05-.178-.049-.179-.047-.179-.047-.18-.046-.18-.045-.18-.043-.18-.043-.182-.082-.364-.038-.182-.039-.183-.036-.183-.036-.184-.035-.184-.033-.184-.033-.185-.031-.185-.03-.186-.058-.373-.026-.186-.026-.187-.024-.188-.023-.188-.023-.188-.04-.377-.019-.19-.017-.189-.016-.19-.016-.19-.014-.191-.012-.191-.022-.383-.01-.192-.014-.384-.01-.387-.003-.193L0 30.038l.002-.387.003-.193.01-.387.014-.384.01-.192.022-.383.012-.19.014-.192.016-.19.016-.19.017-.19.019-.189.04-.377.023-.188.023-.188.024-.189.026-.187.026-.186.057-.372.03-.186.032-.185.033-.185.033-.184.035-.184.036-.184.036-.183.039-.183.038-.182.082-.365.043-.18.043-.182.045-.18.046-.18.047-.18.047-.179.05-.179.049-.177.05-.178.107-.354.053-.176.112-.352.058-.175.058-.174.12-.348.124-.346.128-.343.133-.342.136-.34.14-.337.072-.168.073-.167.074-.168.074-.165.075-.166.078-.166.077-.165.078-.163.08-.164.08-.164.081-.162.083-.162.083-.161.084-.162.086-.16.173-.319.088-.158.089-.158.09-.158.09-.156.092-.156.093-.155.093-.156.095-.153.095-.155.096-.153.098-.152.097-.152.1-.151.099-.15.1-.151.102-.149.103-.15.103-.147.104-.147.105-.147.106-.146.107-.145.215-.29.11-.143.11-.142.11-.142.113-.142.225-.28.114-.14.116-.138.232-.275.236-.272.119-.135.12-.135.242-.266.245-.263.124-.13.125-.13.125-.13.126-.128.255-.254.128-.126.129-.126.13-.125.13-.124.264-.245.266-.242.134-.12.136-.119.272-.236.275-.232.138-.115.14-.114.28-.226.141-.112.143-.11.142-.11.143-.11.29-.216.145-.107.146-.106.147-.104.147-.105.147-.103.15-.103.149-.101.15-.101.15-.1.152-.098.152-.098.152-.098.153-.096.154-.095.154-.094.155-.094.156-.092.155-.092.157-.091.158-.09.157-.088.159-.089.32-.173.159-.085.162-.085.16-.083.163-.082.162-.082.163-.08.164-.08.164-.078.165-.077.165-.077.166-.075.166-.075.168-.074.167-.072.167-.072.338-.14.34-.137.341-.132.344-.128.346-.124.348-.12.174-.058.174-.058.352-.112.176-.054.354-.106.178-.05.178-.05.18-.05.178-.047.18-.047.18-.046.18-.044.181-.044.181-.043.364-.081.182-.039.183-.039.183-.036.184-.036.184-.034.184-.034.186-.032.185-.032.186-.03.372-.057.186-.027.187-.025.188-.025.189-.023.188-.022.377-.041.19-.018.188-.018.19-.016.19-.015.192-.014.19-.013.383-.022.192-.01.385-.013.386-.01.194-.004L30 .038l.387.002zm-.749 2.034l-.18.003-.181.004-.18.005-.179.007-.18.007-.358.018-.178.011-.356.025-.177.014-.178.015-.177.016-.176.018-.176.018-.175.02-.351.042-.175.022-.35.05-.172.026-.347.055-.173.029-.343.061-.172.033-.171.033-.17.035-.172.035-.17.036-.17.038-.168.038-.17.04-.168.04-.168.042-.168.043-.166.044-.168.043-.166.046-.166.047-.165.048-.166.049-.165.048-.164.051-.327.104-.163.054-.325.11-.162.056-.321.115-.16.06-.32.122-.159.062-.159.063-.157.064-.158.065-.156.065-.157.067-.157.068-.155.068-.155.07-.309.142-.154.072-.152.073-.305.149-.152.076-.15.076-.15.079-.15.078-.15.08-.15.08-.147.08-.148.082-.146.084-.148.083-.145.084-.146.087-.145.085-.145.088-.144.088-.142.089-.144.09-.142.09-.142.091-.28.185-.14.094-.14.095-.138.095-.138.097-.138.097-.136.098-.136.098-.137.1-.134.1-.268.203-.133.103-.265.207-.131.105-.13.106-.13.107-.13.107-.128.108-.128.11-.127.108-.252.222-.125.111-.125.113-.124.113-.123.114-.122.115-.123.116-.12.116-.122.117-.119.117-.237.238-.117.119-.117.12-.116.122-.116.122-.115.122-.114.123-.113.124-.113.125-.112.125-.221.252-.11.127-.108.129-.108.128-.108.129-.106.13-.106.13-.105.131-.207.265-.103.133-.204.268-.1.135-.099.136-.098.136-.098.136-.098.138-.096.138-.095.138-.096.14-.093.14-.185.28-.092.142-.09.143-.09.143-.088.142-.089.145-.087.144-.086.146-.086.145-.084.145-.084.148-.083.146-.082.149-.08.147-.081.15-.08.15-.078.149-.078.15-.076.15-.077.152-.148.305-.073.153-.073.153-.142.31-.07.154-.067.156-.068.156-.067.157-.066.157-.065.157-.064.158-.063.159-.062.158-.122.32-.059.16-.116.322-.056.161-.11.326-.053.162-.104.328-.051.163-.049.165-.049.166-.047.166-.047.165-.046.166-.044.168-.043.167-.043.168-.042.167-.04.17-.04.168-.039.169-.037.17-.036.17-.036.17-.034.171-.034.171-.032.172-.061.344-.03.173-.055.346-.026.173-.049.349-.022.175-.043.35-.02.177-.018.176-.017.176-.016.176-.016.178-.014.177-.024.356-.011.178-.019.358-.007.18-.006.18-.005.18-.004.18-.003.18-.002.362.002.362.003.18.004.181.005.18.006.18.007.18.019.357.01.178.025.356.014.177.016.178.016.177.017.176.019.176.019.176.043.35.022.176.049.349.026.172.055.347.03.173.06.344.033.172.034.17.034.171.036.171.036.17.037.17.039.169.04.169.04.168.042.168.043.168.043.167.044.167.046.166.047.166.047.166.05.166.048.164.05.164.105.327.107.326.056.163.056.161.116.322.06.16.121.32.062.158.063.159.064.157.065.158.066.157.067.156.068.157.068.156.07.154.141.31.073.153.073.152.148.306.077.151.076.15.078.151.078.15.08.149.08.15.081.147.082.148.083.147.084.147.084.146.086.145.086.146.087.144.089.144.088.143.09.143.09.143.092.14.185.282.093.14.096.14.095.138.096.138.098.137.098.136.098.137.1.136.1.134.203.269.103.133.207.264.105.131.106.13.106.13.108.13.108.128.109.128.109.127.221.253.112.125.113.125.113.124.114.123.115.122.116.122.116.121.117.121.117.119.237.238.12.117.12.117.121.116.123.116.122.115.123.114.124.112.125.113.125.112.126.111.126.11.127.11.128.108.128.108.13.108.13.107.13.106.131.104.264.208.134.102.268.204.134.1.137.1.136.098.136.098.138.097.138.097.138.094.14.096.14.094.28.185.142.091.142.09.144.09.142.089.144.088.145.087.145.086.146.086.145.085.148.083.146.084.148.08.148.082.15.08.149.08.15.078.15.078.15.077.152.076.305.149.152.073.154.072.31.142.154.07.155.068.157.068.157.067.156.065.158.065.157.064.16.063.158.062.32.122.16.06.321.115.162.056.325.11.163.054.327.104.164.05.165.05.166.048.165.048.166.047.166.045.168.044.166.044.168.042.168.042.169.04.169.04.169.04.17.037.17.035.17.036.17.035.172.033.172.033.343.06.173.03.347.055.173.027.349.048.175.023.35.042.176.02.176.018.176.017.177.017.178.015.177.014.356.024.178.012.358.018.18.007.179.006.18.005.181.004.18.003.362.002.362-.002.18-.003.181-.004.18-.005.18-.006.18-.007.357-.018.178-.012.356-.024.177-.014.178-.015.177-.017.176-.017.176-.018.176-.02.35-.042.175-.023.35-.048.172-.027.347-.055.173-.03.343-.06.172-.033.171-.033.171-.035.17-.036.17-.035.17-.038.17-.038.168-.04.169-.04.168-.043.167-.042.167-.044.168-.044.166-.045.166-.047.165-.048.166-.049.165-.049.164-.05.327-.104.163-.054.325-.11.162-.056.321-.116.161-.059.32-.122.158-.062.159-.063.157-.064.158-.065.156-.065.157-.067.157-.068.155-.069.155-.069.309-.142.154-.072.152-.073.305-.149.152-.076.15-.077.15-.078.15-.078.15-.08.15-.08.147-.081.148-.081.147-.084.147-.083.146-.085.145-.086.145-.086.145-.087.144-.088.142-.089.144-.09.142-.09.142-.091.28-.185.14-.094.14-.096.138-.094.139-.097.137-.097.136-.098.136-.099.137-.1.134-.1.268-.203.134-.102.264-.208.131-.104.13-.106.13-.107.13-.108.128-.108.128-.108.127-.11.126-.11.126-.11.125-.113.125-.113.125-.112.123-.114.122-.115.122-.116.12-.116.122-.117.119-.117.238-.238.117-.119.116-.121.116-.121.116-.122.115-.122.114-.123.113-.124.113-.125.112-.125.11-.127.11-.126.11-.127.11-.128.107-.128.108-.13.106-.13.106-.13.105-.13.207-.265.103-.133.204-.269.1-.134.099-.136.099-.137.097-.136.098-.137.096-.138.095-.139.096-.139.093-.14.185-.281.092-.141.09-.143.09-.143.088-.143.089-.144.087-.144.086-.146.086-.145.084-.146.084-.147.083-.147.082-.148.08-.148.081-.149.08-.15.078-.149.078-.15.076-.151.077-.151.148-.306.073-.152.073-.154.142-.309.07-.154.067-.156.068-.157.068-.156.065-.157.065-.157.064-.158.063-.159.062-.158.122-.32.059-.16.116-.322.056-.161.11-.326.053-.163.104-.327.051-.164.049-.165.049-.165.048-.166.046-.166.046-.166.044-.167.044-.167.042-.168.042-.168.04-.168.04-.17.039-.168.038-.17.035-.17.036-.17.034-.172.034-.17.032-.172.061-.344.03-.173.055-.347.026-.172.049-.35.022-.174.043-.351.02-.176.018-.176.017-.176.016-.177.016-.178.014-.177.024-.356.011-.178.019-.358.007-.18.006-.179.005-.18.004-.18.003-.18.002-.363-.002-.362-.003-.18-.004-.18-.005-.18-.006-.18-.007-.18-.019-.358-.01-.178-.025-.355-.014-.178-.016-.178-.016-.176-.017-.176-.019-.176-.019-.176-.043-.351-.022-.175-.049-.349-.026-.173-.055-.346-.03-.173-.06-.344-.033-.172-.034-.17-.034-.172-.036-.17-.035-.17-.038-.17-.039-.169-.04-.169-.04-.169-.042-.167-.042-.168-.044-.167-.044-.168-.046-.166-.046-.165-.048-.166-.05-.166-.048-.165-.05-.163-.105-.328-.053-.162-.11-.326-.056-.162-.116-.32-.06-.162-.121-.319-.062-.159-.063-.158-.064-.158-.065-.157-.066-.157-.067-.157-.068-.156-.068-.156-.069-.154-.142-.31-.073-.153-.073-.153-.148-.305-.077-.151-.076-.15-.078-.151-.078-.15-.08-.15-.08-.149-.081-.147-.082-.149-.083-.146-.084-.148-.084-.145-.086-.146-.086-.145-.087-.144-.089-.145-.088-.142-.09-.144-.09-.142-.092-.141-.185-.28-.093-.141-.096-.14-.095-.138-.096-.138-.098-.137-.098-.137-.098-.136-.1-.136-.1-.135-.203-.268-.102-.133-.208-.265-.105-.13-.105-.131-.107-.13-.108-.13-.108-.127-.109-.129-.11-.127-.11-.126-.11-.126-.112-.125-.113-.125-.113-.124-.114-.123-.115-.122-.116-.122-.116-.121-.116-.121-.117-.12-.238-.237-.12-.117-.12-.117-.121-.116-.122-.116-.122-.115-.123-.114-.125-.113-.125-.113-.125-.111-.252-.222-.127-.109-.128-.109-.128-.108-.13-.107-.13-.107-.13-.106-.131-.105-.264-.207-.134-.103-.268-.203-.134-.1-.137-.1-.136-.098-.136-.098-.137-.097-.139-.097-.138-.095-.14-.095-.14-.094-.28-.185-.142-.091-.142-.09-.144-.09-.142-.089-.144-.088-.145-.088-.145-.085-.145-.087-.146-.084-.147-.083-.147-.084-.148-.081-.148-.082-.15-.08-.149-.08-.15-.077-.15-.079-.15-.076-.152-.076-.305-.149-.152-.073-.154-.072-.31-.143-.154-.069-.155-.068-.157-.068-.157-.067-.156-.065-.158-.065-.157-.064-.16-.063-.158-.062-.319-.123-.16-.058-.322-.116-.162-.056-.163-.056-.325-.108-.327-.104-.164-.05-.165-.05-.166-.048-.165-.048-.166-.047-.166-.046-.168-.043-.166-.044-.168-.043-.168-.042-.169-.04-.169-.04-.169-.038-.17-.038-.17-.036-.17-.035-.17-.035-.172-.033-.172-.033-.343-.061-.173-.03-.347-.054-.173-.027-.349-.049-.175-.022-.35-.043-.176-.02-.176-.017-.176-.018-.177-.016-.178-.015-.177-.014-.356-.025-.178-.011-.358-.018-.18-.007-.179-.007-.18-.005-.18-.004-.18-.003L30 2.072l-.362.002z"/><path d="M45.881 25.968a2.321 2.321 0 00-1.843-1.56l-8.326-1.277-3.62-7.757A2.31 2.31 0 0030 14.038c-.896 0-1.71.522-2.092 1.336l-3.619 7.757-8.327 1.277a2.327 2.327 0 00-1.305 3.918l6.102 6.29-1.415 8.724c-.144.877.225 1.76.948 2.274a2.307 2.307 0 002.45.135L30 41.715l7.26 4.034c.35.192.734.29 1.117.29.467 0 .933-.144 1.332-.425a2.333 2.333 0 00.948-2.274l-1.416-8.724 6.103-6.29a2.333 2.333 0 00.537-2.358zm-8.293 7.026a2.331 2.331 0 00-.626 1.996l1.415 8.725-7.259-4.033a2.295 2.295 0 00-2.235 0l-7.26 4.033 1.416-8.725a2.331 2.331 0 00-.626-1.996l-6.102-6.288 8.326-1.28a2.315 2.315 0 001.744-1.309l3.62-7.755 3.62 7.755a2.31 2.31 0 001.741 1.308l8.327 1.281-6.1 6.288z"/></g><defs><clipPath id="clip0"><path fill="#fff" transform="translate(0 .038)" d="M0 0h60v60H0z"/></clipPath></defs></svg>