<svg width="60" height="61" fill="none" xmlns="http://www.w3.org/2000/svg"><g clip-path="url(#clip0)" fill-rule="evenodd" clip-rule="evenodd" fill="#666D89"><path d="M30.194.04h.194l.193.003.193.005.193.006.192.007.193.007.192.009.19.011.192.011.191.013.192.014.19.015.19.016.189.018.19.018.188.02.188.02.189.023.188.023.188.025.187.025.186.027.186.028.186.029.186.03.186.032.184.032.185.034.184.034.184.036.183.036.183.04.182.038.182.04.182.041.181.043.181.044.18.044.18.046.18.047.179.048.179.048.178.05.178.051.177.053.177.053.176.054.176.056.176.056.174.058.174.058.174.06.174.06.173.062.173.062.172.064.172.064.17.066.171.066.17.068.17.068.169.07.169.07.168.073.166.072.168.074.166.075.166.075.165.077.165.077.164.079.163.079.164.08.162.082.163.082.16.083.162.085.16.085.16.087.159.086.159.089.157.088.158.09.157.091.155.092.156.092.155.094.154.094.154.095.153.096.152.098.152.098.152.098.15.1.15.1.15.102.149.103.147.103.148.105.146.104.146.106.146.107.144.108.145.107.143.11.142.11.143.111.141.112.14.113.14.113.14.114.138.115.138.116.137.116.136.118.137.118.135.12.134.12.133.12.133.121.132.122.132.123.13.124.13.125.13.126.128.126.128.127.126.127.126.128.125.13.125.13.124.13.123.132.122.13.121.134.121.133.12.135.12.135.117.136.118.136.116.138.116.137.116.138.114.14.113.14.112.14.112.142.111.142.11.142.11.144.108.144.108.145.106.145.106.146.105.147.104.147.103.148.103.15.102.148.1.15.1.15.099.152.097.152.098.152.096.153.095.155.095.153.093.156.093.155.091.156.092.156.09.158.088.158.088.158.087.16.086.16.086.16.084.161.083.16.083.163.081.162.08.164.08.164.078.163.077.165.078.166.075.166.074.165.074.168.073.167.072.168.07.168.07.17.068.17.068.169.067.17.066.172.064.172.064.171.062.173.062.173.06.174.06.174.058.174.058.175.056.176.056.176.053.176.053.177.053.177.051.178.05.177.049.18.047.178.047.18.046.18.045.18.044.181.042.181.04.182.042.183.038.181.039.184.037.183.035.184.035.184.033.184.033.185.031.185.03.186.03.186.028.186.026.186.026.188.024.188.023.188.023.188.02.188.02.19.019.188.017.19.016.19.016.19.014.191.012.191.011.191.011.192.01.192.007.192.007.192.005.194.005.193.003.193.001.193.001.194-.001.195-.001.193-.003.193-.005.193-.005.194-.007.192-.007.192-.01.192-.01.191-.012.192-.012.19-.014.192-.016.19-.016.19-.017.19-.018.188-.02.19-.021.188-.023.188-.023.188-.024.188-.026.187-.026.186-.029.186-.028.187-.03.186-.032.185-.033.185-.033.184-.035.184-.035.184-.037.183-.039.183-.038.182-.041.182-.04.182-.043.181-.044.181-.045.18-.046.18-.047.18-.047.18-.05.178-.049.178-.05.178-.054.177-.053.177-.053.176-.056.176-.056.176-.058.175-.058.174-.06.174-.06.173-.062.173-.062.173-.064.172-.064.172-.066.17-.067.172-.068.17-.068.17-.07.168-.07.169-.072.168-.073.167-.074.167-.074.166-.075.166-.078.166-.077.164-.078.164-.08.164-.08.164-.081.161-.083.163-.083.16-.084.162-.086.16-.086.16-.087.16-.088.158-.089.158-.09.157-.09.157-.092.155-.093.156-.093.156-.095.153-.094.155-.097.152-.098.153-.097.151-.099.152-.1.15-.1.15-.102.15-.103.149-.102.147-.105.148-.105.146-.106.147-.106.145-.108.144-.108.145-.11.143-.11.143-.11.142-.112.141-.113.14-.113.141-.114.14-.116.138-.116.137-.116.137-.118.137-.118.136-.119.135-.12.134-.12.134-.122.133-.122.131-.123.132-.124.13-.125.13-.125.13-.126.128-.126.128-.128.126-.129.126-.129.125-.13.125-.13.124-.132.123-.132.123-.133.12-.133.121-.134.12-.136.12-.136.117-.136.118-.137.116-.138.116-.138.116-.14.114-.14.113-.14.113-.141.112-.143.11-.142.11-.143.11-.145.108-.144.108-.146.107-.146.105-.146.105-.148.105-.147.103-.15.102-.148.102-.15.1-.151.1-.152.099-.151.098-.153.097-.153.097-.154.094-.154.095-.155.094-.156.092-.155.092-.157.091-.158.09-.157.088-.159.089-.16.086-.16.087-.159.085-.162.084-.16.084-.163.082-.162.081-.163.08-.164.08-.164.078-.165.078-.165.077-.166.075-.166.075-.168.074-.166.072-.168.072-.17.07-.168.07-.17.069-.17.068-.17.066-.171.066-.172.064-.172.064-.173.062-.173.062-.174.06-.174.06-.174.058-.174.058-.176.056-.176.056-.176.054-.177.053-.177.053-.178.05-.178.05-.179.05-.179.047-.18.047-.18.045-.18.045-.181.044-.181.043-.182.04-.182.041-.182.039-.183.038-.183.037-.184.035-.184.035-.184.034-.185.032-.186.032-.186.03-.186.029-.186.028-.186.027-.187.025-.188.024-.188.024-.189.022-.188.02-.189.02-.189.02-.19.016-.19.017-.19.015-.19.014-.192.012-.191.012-.191.01-.192.01-.193.007-.192.007-.193.005-.193.005-.194.003-.193.001-.194.001h-.194l-.193-.002-.194-.003-.193-.005-.193-.005-.192-.007-.193-.007-.192-.01-.19-.01-.192-.012-.191-.012-.191-.014-.19-.015-.19-.017-.19-.017-.19-.018-.188-.02-.188-.02-.189-.023-.188-.024-.188-.024-.187-.026-.186-.026-.186-.028-.186-.029-.186-.03-.185-.032-.186-.032-.184-.034-.184-.035-.184-.035-.183-.037-.183-.038-.182-.039-.182-.04-.182-.041-.18-.043-.182-.044-.18-.045-.18-.045-.18-.047-.179-.048-.179-.049-.178-.05-.178-.05-.177-.053-.177-.053-.176-.054-.176-.056-.175-.056-.175-.058-.174-.058-.174-.06-.174-.06-.173-.062-.173-.062-.172-.064-.172-.064-.17-.066-.171-.066-.17-.068-.17-.069-.169-.07-.169-.07-.167-.072-.167-.072-.168-.075-.166-.074-.166-.075-.165-.077-.165-.078-.164-.078-.163-.08-.164-.08-.162-.08-.163-.083-.16-.084-.162-.084-.16-.085-.16-.087-.159-.086-.159-.089-.157-.088-.158-.09-.156-.091-.156-.092-.156-.092-.155-.094-.154-.095-.154-.094-.153-.097-.152-.097-.152-.098-.152-.099-.15-.1-.15-.1-.149-.102-.15-.102-.147-.103-.147-.105-.147-.105-.146-.105-.146-.107-.144-.108-.145-.108-.143-.11-.142-.11-.143-.11-.141-.112-.14-.113-.14-.113-.14-.114-.138-.116-.138-.116-.137-.116-.136-.118-.136-.117-.136-.12-.134-.12-.133-.12-.133-.121L9.564 52l-.132-.123-.13-.124-.13-.125-.13-.125-.127-.126-.128-.126-.127-.128-.126-.128-.125-.13-.125-.13-.124-.13-.123-.132-.122-.131-.121-.133-.121-.134-.12-.134-.12-.135-.117-.136-.118-.137-.116-.137-.116-.137-.116-.139-.114-.139-.113-.14-.112-.14-.112-.142-.111-.142-.11-.143-.11-.143-.108-.145-.107-.144-.107-.145-.106-.147-.105-.146-.104-.148-.103-.147-.103-.15-.102-.148-.1-.15-.1-.151-.099-.152-.097-.151-.098-.153-.096-.152-.095-.155-.095-.153-.093-.156-.093-.156-.091-.155-.092-.157-.09-.157-.088-.158-.088-.159-.087-.16-.086-.159-.086-.16-.084-.161-.083-.161-.083-.163-.081-.161-.08-.164-.08-.164-.078-.164-.077-.164-.078-.166-.075-.166-.074-.166-.074-.167-.073-.167-.072-.168-.07-.169-.07-.169-.068-.17-.068-.17-.066-.17-.067-.171-.064-.172-.064-.172-.062-.173-.062-.172-.06-.174-.06-.174-.058-.174-.058-.175-.056-.176-.056-.176-.053-.176-.053-.177-.053-.177-.051-.178-.05-.178-.049-.179-.047-.179-.047-.18-.046-.18-.045-.18-.043-.18-.043-.182-.04-.182-.042-.182-.038-.182-.039-.183-.036-.183-.036-.184-.035-.184-.033-.184-.033-.185-.031-.185-.03-.186-.03-.187-.028-.186-.026-.186-.026-.187-.024-.188-.023-.188-.023-.188-.02-.188-.02-.19-.019-.189-.017-.189-.016-.19-.016-.19-.014-.191-.012-.191-.011-.192-.011-.19-.01-.193-.007-.192-.007-.192-.005-.194-.005-.193-.003-.193-.001-.193L0 30.038l.001-.194.001-.193.003-.193.005-.193.005-.194.007-.192.007-.192.01-.192.01-.192.012-.19.012-.192.014-.191.016-.19.016-.19.017-.19.019-.189.02-.189.02-.188.023-.188.023-.188.024-.189.026-.187.026-.186.029-.186.028-.186.03-.186.032-.185.033-.185.033-.184.035-.184.036-.184.036-.183.039-.183.038-.182.041-.183.04-.182.044-.18.043-.182.045-.18.046-.18.047-.18.047-.179.05-.179.049-.177.05-.178.054-.177.053-.177.053-.176.056-.176.056-.176.058-.175.058-.174.06-.174.06-.174.062-.173.062-.173.064-.171.064-.172.067-.171.066-.171.068-.17.068-.17.07-.169.07-.168.072-.168.073-.167.074-.168.074-.165.075-.166.078-.166.077-.165.078-.163.08-.164.08-.164.081-.162.083-.162.083-.161.084-.162.086-.16.086-.159.087-.16.088-.158.089-.158.09-.158.09-.156.092-.156.093-.155.093-.156.095-.153.095-.155.096-.153.098-.152.097-.152.1-.151.099-.15.1-.151.102-.149.103-.15.103-.147.104-.147.105-.147.106-.146.107-.145.107-.145.108-.144.11-.144.11-.142.11-.142.113-.142.112-.14.113-.14.114-.14.116-.138.116-.137.116-.138.118-.136.118-.136.119-.135.12-.135.12-.133.122-.133.122-.131.123-.132.124-.13.125-.13.125-.13.126-.128.127-.127.128-.127.128-.126.129-.126.13-.125.13-.124.132-.123.132-.122.133-.12.133-.122.134-.12.136-.119.136-.118.136-.118.137-.116.138-.116.138-.115.14-.114.14-.113.14-.113.141-.112.143-.11.142-.11.143-.11.145-.108.144-.108.146-.107.146-.106.147-.104.147-.105.147-.103.15-.103.149-.101.15-.101.15-.1.152-.098.152-.098.152-.098.153-.096.154-.095.154-.094.155-.094.156-.092.155-.092.157-.091.158-.09.157-.088.159-.089.16-.086.16-.087.159-.085.162-.085.16-.083.163-.082.162-.082.163-.08.164-.08.164-.078.165-.077.165-.077.166-.075.166-.075.168-.074.167-.072.167-.072.17-.07.168-.07.17-.069.17-.068.17-.066.171-.066.172-.064.172-.064.173-.062.173-.062.174-.06.174-.06.174-.058.174-.058.176-.056.176-.056.176-.054.177-.053.177-.053.178-.05.178-.05.18-.05.178-.047.18-.047.18-.046.18-.044.181-.044.181-.043.182-.04.182-.041.182-.039.183-.039.183-.036.184-.036.184-.034.184-.034.186-.032.185-.032.186-.03.186-.029.186-.028.186-.027.187-.025.188-.025.189-.023.188-.022.188-.02.189-.021.19-.018.188-.018.19-.016.19-.015.192-.014.19-.013.192-.01.191-.012.192-.01.193-.006.192-.007.193-.006.193-.005.194-.003h.193L30 .037l.194.001zm-.375 2.033l-.181.001-.18.003-.181.004-.18.005-.179.007-.18.007-.179.009-.179.009-.178.011-.178.012-.178.013-.177.014-.178.015-.177.016-.176.018-.176.018-.175.02-.177.02-.174.022-.175.022-.174.025-.175.024-.173.027-.174.027-.173.028-.173.029-.172.03-.171.031-.172.033-.171.033-.17.035-.172.035-.17.036-.17.038-.168.038-.17.04-.168.04-.168.042-.168.043-.166.044-.168.043-.166.046-.166.047-.165.048-.166.049-.165.048-.164.051-.163.052-.164.052-.163.054-.163.055-.162.055-.162.056-.16.058-.161.058-.16.058-.16.062-.16.06-.159.063-.159.063-.157.064-.158.065-.156.065-.157.067-.157.068-.155.068-.155.07-.154.07-.155.072-.154.072-.152.073-.153.074-.152.075-.152.076-.15.076-.15.079-.15.078-.15.08-.15.08-.147.08-.148.082-.146.084-.148.083-.145.084-.146.087-.145.085-.145.088-.144.088-.142.089-.144.09-.142.09-.142.091-.14.093-.14.092-.14.094-.14.095-.138.095-.138.097-.138.097-.136.098-.136.098-.137.1-.134.1-.134.102L13 7.83l-.133.103-.133.104-.132.103-.131.105-.13.106-.13.107-.13.107-.128.108-.128.11-.127.108-.126.11-.126.112-.125.111-.125.113-.124.113-.123.114-.122.115-.123.116-.12.116-.122.117-.119.117-.119.119-.119.119-.117.119-.116.12-.116.122-.116.122-.115.122-.114.123-.113.124-.113.125-.112.125-.11.126-.111.126-.11.127-.108.129-.108.128-.108.129-.106.13-.106.13-.105.131-.104.133-.103.132-.103.133-.102.134-.102.134-.1.135-.099.136-.098.136-.098.136-.098.138-.096.138-.095.138-.096.14-.093.14-.093.14-.092.14-.092.142-.09.143-.09.143-.088.142-.089.145-.087.144-.086.146-.086.145-.084.145-.084.148-.083.146-.082.149-.08.147-.081.15-.08.15-.078.149-.078.15-.076.15-.077.152-.074.153-.074.152-.073.153-.073.153-.07.155-.072.155-.07.154-.067.156-.068.156-.067.157-.066.157-.065.157-.064.158-.063.159-.062.158-.06.16-.062.16-.059.16-.058.16-.058.162-.056.161-.055.163-.055.163-.053.162-.052.164-.052.164-.051.163-.049.165-.049.166-.047.166-.047.165-.046.166-.044.168-.043.167-.043.168-.042.167-.04.17-.04.168-.039.169-.037.17-.036.17-.036.17-.034.171-.034.171-.032.172-.03.172-.031.172-.03.173-.027.172-.028.174-.026.173-.025.175-.024.174-.022.175-.022.175-.021.176-.02.176-.018.176-.017.176-.016.176-.016.178-.014.177-.012.178-.012.178-.011.178-.01.18-.009.178-.007.18-.006.18-.005.18-.004.18-.003.18-.001.181-.001.181v.181l.002.181.003.18.004.181.005.18.006.18.007.18.01.178.009.18.01.177.013.178.012.178.014.177.016.178.016.177.017.176.019.176.019.176.021.176.022.175.022.175.024.174.025.175.026.172.028.174.027.173.03.173.03.172.03.172.033.172.034.17.034.171.036.171.036.17.037.17.039.169.04.169.04.168.042.168.043.168.043.167.044.168.046.165.047.166.047.166.05.166.048.164.05.164.053.164.052.163.053.163.054.163.056.163.056.161.058.16.058.162.06.16.06.16.061.16.062.158.063.159.064.157.065.158.066.157.067.156.068.157.068.156.07.154.07.155.071.154.073.154.073.152.074.153.074.153.077.151.076.15.078.151.078.15.08.149.08.15.081.147.082.148.083.147.084.147.084.146.086.145.086.146.087.144.089.144.088.143.09.143.09.143.092.14.092.141.093.14.093.141.096.14.095.138.096.138.098.137.098.136.098.137.1.136.1.134.101.135.102.134.103.133.103.132.104.132.105.131.106.13.106.13.108.13.108.128.109.128.109.127.11.127.111.126.112.125.113.125.113.124.114.123.115.122.116.122.116.121.117.121.116.119.12.119.118.119.12.117.12.117.121.116.123.116.122.115.123.114.124.112.125.113.125.112.126.111.126.11.127.11.128.108.128.108.13.108.13.107.13.106.131.104.132.104.133.104.133.102.134.102.134.102.134.1.137.1.136.098.136.098.138.097.138.097.138.094.14.096.14.094.14.092.14.093.142.091.142.09.144.09.142.089.144.088.145.087.145.086.146.086.145.085.148.083.146.084.148.08.148.082.15.08.149.08.15.078.15.078.15.077.152.076.152.074.153.075.152.073.154.072.155.071.154.071.155.07.155.068.157.068.157.067.156.065.158.065.157.064.16.063.158.062.16.061.16.061.16.06.16.057.161.058.162.056.163.055.162.055.163.054.164.052.163.052.164.05.165.05.166.048.165.048.166.047.166.045.168.044.166.044.168.042.168.042.169.04.169.04.169.04.17.037.17.035.17.036.17.035.172.033.172.033.171.03.172.03.173.03.173.028.174.027.173.027.175.024.174.024.175.023.174.021.177.021.175.02.176.018.176.017.177.017.178.015.177.014.178.012.178.012.178.012.179.009.179.009.18.007.179.006.18.005.181.004.18.003.181.002h.362l.181-.002.18-.003.181-.004.18-.005.18-.006.18-.007.178-.01.179-.008.178-.012.178-.012.178-.012.177-.014.178-.015.177-.017.176-.017.176-.018.176-.02.175-.02.175-.022.175-.023.174-.024.175-.024.173-.027.174-.027.173-.028.173-.03.172-.03.171-.03.172-.033.171-.033.171-.035.17-.036.17-.035.17-.038.17-.038.168-.04.169-.04.168-.043.167-.042.167-.044.168-.044.166-.045.166-.047.165-.048.166-.049.165-.049.164-.05.163-.052.164-.052.163-.054.162-.055.163-.055.162-.056.16-.058.161-.058.161-.059.16-.06.16-.062.158-.062.159-.063.157-.064.158-.065.156-.065.157-.067.157-.068.155-.069.155-.069.154-.07.155-.072.154-.072.152-.073.153-.075.152-.074.152-.076.15-.077.15-.078.15-.078.15-.08.15-.08.147-.081.148-.081.147-.084.147-.083.145-.085.146-.086.145-.086.145-.087.144-.088.142-.089.144-.09.142-.09.142-.091.14-.093.14-.092.14-.094.14-.096.138-.094.139-.097.137-.097.136-.098.136-.099.137-.1.134-.1.134-.1.134-.102.134-.103.132-.104.132-.104.131-.104.13-.106.13-.107.13-.108.128-.108.128-.108.127-.11.126-.11.126-.11.125-.113.125-.113.125-.112.123-.114.122-.115.122-.116.12-.116.122-.117.119-.117.119-.119.119-.119.117-.119.116-.121.116-.121.116-.122.115-.122.114-.123.113-.124.113-.125.112-.125.11-.127.11-.126.11-.127.11-.128.107-.128.108-.13.106-.13.106-.13.105-.13.104-.133.103-.132.103-.133.102-.134.102-.135.1-.134.099-.136.099-.137.097-.136.098-.137.096-.138.095-.139.096-.139.093-.14.093-.14.092-.141.092-.141.09-.143.09-.143.088-.143.089-.144.087-.144.086-.146.086-.145.084-.146.084-.147.083-.147.082-.148.08-.148.081-.149.08-.15.078-.149.078-.15.076-.151.077-.151.074-.153.074-.153.073-.152.073-.154.07-.154.072-.155.07-.154.067-.156.068-.157.068-.156.065-.157.065-.157.064-.158.063-.159.062-.158.06-.16.062-.16.059-.16.058-.161.058-.16.056-.162.055-.163.055-.163.053-.163.052-.163.052-.164.051-.164.049-.165.049-.165.048-.166.046-.166.046-.166.044-.167.044-.167.042-.168.042-.168.04-.168.04-.17.039-.168.038-.17.035-.17.036-.17.034-.172.034-.17.032-.172.03-.172.031-.172.03-.173.027-.173.028-.174.026-.172.025-.175.024-.174.022-.175.022-.175.021-.176.02-.176.018-.176.017-.176.016-.177.016-.178.014-.177.012-.178.012-.178.011-.178.01-.179.009-.179.007-.18.006-.179.005-.18.004-.18.003-.18.001-.182.001-.18v-.182l-.002-.18-.003-.18-.004-.182-.005-.18-.006-.179-.007-.18-.01-.179-.009-.179-.01-.178-.013-.178-.012-.178-.014-.177-.016-.178-.016-.176-.017-.176-.019-.176-.019-.176-.021-.176-.022-.175-.022-.175-.024-.174-.025-.175-.026-.173-.028-.174-.027-.172-.03-.173-.03-.172-.03-.172-.033-.172-.034-.17-.034-.172-.036-.17-.035-.17-.038-.17-.039-.169-.04-.169-.04-.169-.042-.167-.042-.168-.044-.167-.044-.168-.046-.166-.046-.165-.048-.166-.05-.166-.048-.165-.05-.163-.053-.164-.051-.164-.054-.162-.055-.163-.055-.163-.056-.162-.058-.16-.058-.16-.06-.162-.06-.16-.061-.159-.062-.159-.063-.158-.064-.158-.065-.157-.066-.157-.067-.157-.068-.156-.068-.156-.069-.154-.071-.155-.071-.155-.073-.153-.073-.153-.074-.152-.074-.153-.077-.151-.076-.15-.078-.151-.078-.15-.08-.15-.08-.149-.081-.147-.082-.149-.083-.146-.084-.148-.084-.145-.086-.146-.086-.145-.087-.144-.089-.145-.088-.142-.09-.144-.09-.142-.092-.141-.092-.14-.093-.14-.093-.141-.096-.14-.095-.138-.096-.138-.098-.137-.098-.137-.098-.136-.1-.136-.1-.135-.101-.134-.102-.134-.102-.133-.104-.132-.104-.133-.105-.13-.105-.131-.107-.13-.108-.13-.108-.127-.109-.129-.11-.127-.11-.126-.11-.126-.112-.125-.113-.125-.113-.124-.114-.123-.115-.122-.116-.122-.116-.121-.116-.121-.117-.12-.12-.118-.118-.12-.12-.116-.12-.117-.121-.116-.122-.116-.122-.115-.123-.114-.125-.113-.125-.113-.125-.111-.126-.111-.126-.111-.127-.109-.128-.109-.128-.108-.13-.107-.13-.107-.13-.106-.131-.105-.132-.103-.132-.104-.134-.103-.134-.101-.134-.102-.134-.1-.137-.1-.136-.098-.136-.098-.137-.097-.139-.097-.138-.095-.14-.095-.14-.094-.14-.092-.14-.093-.142-.091-.142-.09-.144-.09-.142-.089-.144-.088-.145-.088-.145-.085-.146-.087-.145-.084-.147-.083-.147-.084-.148-.081-.148-.082-.15-.08-.149-.08-.15-.077-.15-.079-.15-.076-.152-.076-.152-.075-.153-.074-.152-.073-.154-.072-.155-.071-.154-.072-.155-.069-.155-.068-.157-.068-.157-.067-.156-.065-.158-.065-.157-.064-.16-.063-.158-.062-.16-.062-.159-.06-.16-.06-.161-.057-.161-.058-.162-.056-.163-.056-.162-.054-.163-.054-.164-.052-.163-.052-.164-.05-.165-.05-.166-.048-.165-.048-.166-.047-.166-.046-.168-.043-.166-.044-.168-.043-.168-.042-.169-.04-.169-.04-.169-.038-.17-.038-.17-.036-.17-.035-.17-.035-.172-.033-.172-.033-.171-.03-.172-.031-.173-.03-.173-.027-.174-.027-.173-.027-.175-.024-.174-.025-.175-.022-.175-.021-.175-.022-.176-.02-.176-.017-.176-.018-.177-.016-.178-.015-.177-.014-.178-.013-.178-.012-.178-.011-.179-.01-.179-.008-.18-.007-.179-.007-.18-.005-.18-.004-.18-.003h-.182L30 2.071l-.181.001z"/><path d="M30 40.038c-1.057 0-2.087-.082-3.086-.228-.684.833-3.628 3.704-6.753 4.216.004-.013-.161.012-.255.012a.905.905 0 01-.832-1.264h-.002C19.661 41.761 21 39.831 21 38.038c0-.029.008-.047.008-.074C16.779 35.804 14 32.165 14 28.038c0-6.627 7.163-12 16-12 8.836 0 16 5.373 16 12s-7.164 12-16 12zm0-22c-7.72 0-14 4.486-14 10 0 3.207 2.212 6.252 5.918 8.145a2 2 0 011.081 1.965c-.02 1.034-.326 2.038-.716 2.932 1.44-.856 2.657-2.018 3.085-2.539a2 2 0 011.836-.71 19.29 19.29 0 002.796.207c7.72 0 14-4.486 14-10s-6.28-10-14-10zm0 4c-5.327 0-10 2.804-10 6a.5.5 0 01-1 0c0-3.794 5.037-7 11-7a.5.5 0 010 1z"/></g><defs><clipPath id="clip0"><path fill="#fff" transform="translate(0 .038)" d="M0 0h60v60H0z"/></clipPath></defs></svg>